<svg xmlns="http://www.w3.org/2000/svg" width="128" height="128" viewBox="0 0 128 128">
    <path d="M 28.11,13.61 c -2.74,0 -4.95,2.21 -4.95,4.95 v 90.88 c 0,2.74 2.21,4.95 4.95,4.95 h 71.81 c 2.74,0 4.92,-2.21 4.92,-4.95 V 18.56 c 0,-2.74 -2.18,-4.95 -4.92,-4.95 z m 7.96,7.35 h 55.86 c 3.08,0 5.56,2.5 5.56,5.59 v 12.65 c 0,3.08 -2.48,5.56 -5.56,5.56 H 36.07 c -3.08,0 -5.53,-2.48 -5.53,-5.56 V 26.55 c 0,-3.08 2.45,-5.59 5.53,-5.59 z m 21.07,9.00 c -2.32,0 -4.20,1.59 -4.20,3.56 0,1.97 1.87,3.53 4.20,3.53 h 15.11 c 2.32,0 4.20,-1.56 4.20,-3.53 0,-1.97 -1.87,-3.56 -4.20,-3.56 z M 36.07,52.10 h 55.86 c 3.08,0 5.56,2.50 5.56,5.59 v 12.65 c 0,3.08 -2.48,5.56 -5.56,5.56 H 36.07 c -3.08,0 -5.53,-2.48 -5.53,-5.56 V 57.69 c 0,-3.08 2.45,-5.59 5.53,-5.59 z m 21.07,9.00 c -2.32,0 -4.20,1.59 -4.20,3.56 0,1.97 1.87,3.53 4.20,3.53 h 15.11 c 2.32,0 4.20,-1.56 4.20,-3.53 0,-1.97 -1.87,-3.56 -4.20,-3.56 z M 36.07,83.25 h 55.86 c 3.08,0 5.56,2.50 5.56,5.59 v 12.65 c 0,3.08 -2.48,5.56 -5.56,5.56 H 36.07 c -3.08,0 -5.53,-2.48 -5.53,-5.56 V 88.83 c 0,-3.08 2.45,-5.59 5.53,-5.59 z m 21.07,9.00 c -2.32,0 -4.20,1.59 -4.20,3.56 0,1.97 1.87,3.53 4.20,3.53 h 15.11 c 2.32,0 4.20,-1.56 4.20,-3.53 0,-1.97 -1.87,-3.56 -4.20,-3.56 z"/>
</svg>
