<?xml version="1.0" encoding="utf-8"?>
<!-- Generator: Adobe Illustrator 24.3.0, SVG Export Plug-In . SVG Version: 6.00 Build 0)  -->
<svg version="1.1" id="Layer_1" xmlns="http://www.w3.org/2000/svg" xmlns:xlink="http://www.w3.org/1999/xlink" x="0px" y="0px"
	 viewBox="0 0 120 120" enable-background="new 0 0 120 120" xml:space="preserve">
<path fill="#FBCF26" d="M75.375,50.286c1.519,0,2.751-1.231,2.751-2.75c0-1.519-1.232-2.75-2.751-2.75
	c-1.519,0-2.751,1.231-2.751,2.75C72.624,49.055,73.856,50.286,75.375,50.286z M91.205,80.733c0,0.578-0.472,1.048-1.05,1.05H28.97
	c-0.578-0.002-1.047-0.472-1.049-1.05V67.616L43.264,54.83l13.454,13.954l11.452-8.653l23.036,15.751V80.733z"/>
<path fill="#1A2559" d="M90.155,34.298L28.97,34.3c-2.239,0-4.048,1.813-4.05,4.05v42.384c0.002,2.234,1.811,4.048,4.05,4.05h61.185
	c2.237-0.002,4.048-1.812,4.051-4.05V38.349C94.203,36.11,92.393,34.3,90.155,34.298z M91.205,80.733c0,0.578-0.472,1.048-1.05,1.05
	H28.97c-0.578-0.002-1.047-0.472-1.049-1.05V67.616L43.264,54.83l13.454,13.954l11.452-8.653l23.036,15.751V80.733z M91.205,72.246
	L68.082,56.437l-11.05,8.349L43.487,50.74L27.921,63.713V38.349c0.002-0.58,0.471-1.05,1.049-1.052h61.185
	c0.578,0.002,1.05,0.474,1.05,1.052V72.246z M75.376,41.786c-3.179,0-5.75,2.573-5.75,5.75c0,3.176,2.571,5.749,5.75,5.749
	c3.176,0,5.749-2.573,5.749-5.749C81.125,44.359,78.552,41.786,75.376,41.786z M75.376,50.286c-1.52-0.003-2.748-1.23-2.752-2.75
	c0.004-1.52,1.232-2.748,2.752-2.75c1.517,0.002,2.746,1.23,2.75,2.75C78.122,49.055,76.894,50.283,75.376,50.286z"/>
</svg>
